
<svg xmlns="http://www.w3.org/2000/svg" xmlns:xlink="http://www.w3.org/1999/xlink" width="1280" height="7024" viewBox="0 0 1280 7024">
  <defs>
    <clipPath id="clip-path">
      <rect id="長方形_87" data-name="長方形 87" width="932" height="973" transform="translate(0 2845)" fill="#fff"/>
    </clipPath>
    <clipPath id="clip-path-2">
      <rect id="長方形_108" data-name="長方形 108" width="264" height="415" transform="translate(0 1257.277)" fill="#fff"/>
    </clipPath>
    <linearGradient id="linear-gradient" x1="0.429" y1="0.752" x2="1.05" y2="0.408" gradientUnits="objectBoundingBox">
      <stop offset="0" stop-color="#0e0d6a"/>
      <stop offset="1" stop-color="#00d4ff"/>
    </linearGradient>
    <clipPath id="clip-path-3">
      <rect id="長方形_106" data-name="長方形 106" width="446" height="560" transform="translate(0 554)" fill="#e3d5ff" opacity="0.999"/>
    </clipPath>
    <clipPath id="clip-path-4">
      <rect id="長方形_86" data-name="長方形 86" width="684" height="900" transform="translate(596 1569)" fill="#fff"/>
    </clipPath>
    <clipPath id="clip-path-5">
      <rect id="長方形_112" data-name="長方形 112" width="684" height="1117" transform="translate(596 1569)" fill="#fff"/>
    </clipPath>
    <clipPath id="clip-path-6">
      <rect id="長方形_84" data-name="長方形 84" width="356" height="560" transform="translate(0 1257)" fill="#fff"/>
    </clipPath>
  </defs>
  <g id="company-BG" transform="translate(0 -554)">
    <g id="マスクグループ_6" data-name="マスクグループ 6" transform="translate(0 964)" clip-path="url(#clip-path)">
      <path id="パス_6" data-name="パス 6" d="M781.762,839.469c95.032-69.389,205.9-130.481,246.632-224.76,40.728-93.524,11.313-220.234-65.617-286.606-76.931-65.618-202.133-71.651-322.809-134.252C520.045,131.251,403.895,10.574,283.218.769,161.788-9.79,35.078,89.768,6.417,211.2-21.489,332.629,47.9,475.932,93.908,603.4S162.542,843.24,231.177,917.154c67.88,73.914,182.523,110.117,279.064,89,97.3-20.364,176.489-97.3,271.521-166.684" transform="translate(977.5 3742.538) rotate(167)" fill="#ecf7ff"/>
    </g>
    <g id="マスクグループ_13" data-name="マスクグループ 13" transform="translate(0 3814.723)" clip-path="url(#clip-path-2)">
      <path id="パス_26" data-name="パス 26" d="M338.911,74.847c41.2,30.082,89.264,56.566,106.92,97.438,17.657,40.545,4.9,95.476-28.446,124.25-33.351,28.447-87.629,31.062-139.945,58.2C225.451,381.875,175.1,434.19,122.781,438.441c-52.643,4.578-107.574-38.583-120-91.226-12.1-52.643,17.984-114.768,37.929-170.026S70.466,73.212,100.22,41.168C129.648,9.125,179.348-6.57,221.2,2.586c42.18,8.828,76.512,42.18,117.71,72.261" transform="translate(-142.042 1234.089) rotate(12)" fill="url(#linear-gradient)"/>
    </g>
    <g id="マスクグループ_11" data-name="マスクグループ 11" clip-path="url(#clip-path-3)">
      <path id="パス_9" data-name="パス 9" d="M453.906,487.412c55.178-40.288,119.552-75.76,143.2-130.5,23.648-54.3,6.569-127.872-38.1-166.409-44.668-38.1-117.362-41.6-187.429-77.949C301.948,76.207,234.509,6.14,164.442.447,93.937-5.684,20.367,52.121,3.726,122.626c-16.2,70.5,24.086,153.709,50.8,227.718s39.851,139.258,79.7,182.174c39.413,42.916,105.976,63.936,162.03,51.674,56.491-11.824,102.473-56.491,157.651-96.78" transform="translate(474 1073.94) rotate(167)" fill="#ecf7ff"/>
    </g>
    <g id="マスクグループ_5" data-name="マスクグループ 5" transform="translate(0 -532)" clip-path="url(#clip-path-4)">
      <path id="パス_5" data-name="パス 5" d="M717.713,158.5c87.247,63.7,189.034,119.791,226.426,206.345,37.392,85.862,10.387,202.19-60.242,263.125-70.628,60.242-185.572,65.781-296.362,123.253C477.439,808.7,370.8,919.488,260.015,928.49,148.533,938.184,32.2,846.782,5.892,735.3c-25.62-111.482,38.084-243.044,80.322-360.066S149.225,155.041,212.237,87.183c62.319-67.858,167.569-101.1,256.2-81.707C557.761,24.171,630.467,94.8,717.713,158.5" transform="translate(757.023 1489) rotate(13)" fill="#ecf7ff"/>
    </g>
    <g id="マスクグループ_16" data-name="マスクグループ 16" transform="translate(0 4892)" clip-path="url(#clip-path-5)">
      <path id="パス_28" data-name="パス 28" d="M717.713,158.5c87.247,63.7,189.034,119.791,226.426,206.345,37.392,85.862,10.387,202.19-60.242,263.125-70.628,60.242-185.572,65.781-296.362,123.253C477.439,808.7,370.8,919.488,260.015,928.49,148.533,938.184,32.2,846.782,5.892,735.3c-25.62-111.482,38.084-243.044,80.322-360.066S149.225,155.041,212.237,87.183c62.319-67.858,167.569-101.1,256.2-81.707C557.761,24.171,630.467,94.8,717.713,158.5" transform="translate(757.023 1489) rotate(13)" fill="#ecf7ff"/>
    </g>
    <g id="マスクグループ_3" data-name="マスクグループ 3" transform="translate(0 1085)" clip-path="url(#clip-path-6)">
      <path id="パス_10" data-name="パス 10" d="M457.016,100.93c55.556,40.565,120.371,76.279,144.18,131.394,23.81,54.674,6.614,128.748-38.36,167.549-44.974,38.36-118.166,41.887-188.713,78.483-70.106,36.6-138.008,107.143-208.555,112.875C94.581,597.4,20.507,539.2,3.752,468.215-12.562,397.227,28,313.453,54.9,238.937S95.022,98.725,135.145,55.515c39.683-43.21,106.7-64.374,163.14-52.028,56.878,11.9,103.175,56.879,158.731,97.443" transform="translate(-191.542 1226.11) rotate(12)" fill="url(#linear-gradient)"/>
    </g>
  </g>
</svg>
